<mxfile host="app.diagrams.net" modified="2022-11-01T10:09:39.455Z" agent="5.0 (Macintosh; Intel Mac OS X 10_15_7) AppleWebKit/537.36 (KHTML, like Gecko) Chrome/107.0.0.0 Safari/537.36" etag="JHOWMKKjfpymGokLNANc" version="20.4.2" type="github">
  <diagram id="C5RBs43oDa-KdzZeNtuy" name="Page-1">
    <mxGraphModel dx="865" dy="989" grid="0" gridSize="10" guides="1" tooltips="1" connect="1" arrows="1" fold="1" page="0" pageScale="1" pageWidth="827" pageHeight="1169" background="none" math="0" shadow="0">
      <root>
        <mxCell id="WIyWlLk6GJQsqaUBKTNV-0" />
        <mxCell id="WIyWlLk6GJQsqaUBKTNV-1" parent="WIyWlLk6GJQsqaUBKTNV-0" />
        <mxCell id="zkfFHV4jXpPFQw0GAbJ--0" value="风险点位筛选优化" style="swimlane;fontStyle=1;align=center;verticalAlign=top;childLayout=stackLayout;horizontal=1;startSize=26;horizontalStack=0;resizeParent=1;resizeLast=0;collapsible=1;marginBottom=0;rounded=0;shadow=0;strokeWidth=1;fillColor=#dae8fc;strokeColor=#6c8ebf;" parent="WIyWlLk6GJQsqaUBKTNV-1" vertex="1">
          <mxGeometry x="220" y="150" width="180" height="100" as="geometry">
            <mxRectangle x="220" y="120" width="160" height="26" as="alternateBounds" />
          </mxGeometry>
        </mxCell>
        <mxCell id="zkfFHV4jXpPFQw0GAbJ--1" value="1、风险点位排查&#xa;2、点位和scada编号对应&#xa;3、代表点位筛选" style="text;align=left;verticalAlign=middle;spacingLeft=4;spacingRight=4;overflow=hidden;rotatable=0;points=[[0,0.5],[1,0.5]];portConstraint=eastwest;" parent="zkfFHV4jXpPFQw0GAbJ--0" vertex="1">
          <mxGeometry y="26" width="180" height="74" as="geometry" />
        </mxCell>
        <mxCell id="zkfFHV4jXpPFQw0GAbJ--17" value="数据源优化" style="swimlane;fontStyle=1;align=center;verticalAlign=top;childLayout=stackLayout;horizontal=1;startSize=26;horizontalStack=0;resizeParent=1;resizeLast=0;collapsible=1;marginBottom=0;rounded=0;shadow=0;strokeWidth=1;fillColor=#dae8fc;strokeColor=#6c8ebf;" parent="WIyWlLk6GJQsqaUBKTNV-1" vertex="1">
          <mxGeometry x="460" y="150" width="180" height="100" as="geometry">
            <mxRectangle x="508" y="120" width="160" height="26" as="alternateBounds" />
          </mxGeometry>
        </mxCell>
        <mxCell id="zkfFHV4jXpPFQw0GAbJ--18" value="1、scada数据收集方式&#xa;2、scada数据清洗&#xa;3、ec数据收集方式、分辨率" style="text;align=left;verticalAlign=middle;spacingLeft=4;spacingRight=4;overflow=hidden;rotatable=0;points=[[0,0.5],[1,0.5]];portConstraint=eastwest;horizontal=1;fontSize=13;" parent="zkfFHV4jXpPFQw0GAbJ--17" vertex="1">
          <mxGeometry y="26" width="180" height="74" as="geometry" />
        </mxCell>
        <mxCell id="KSTEse7L-qCAf8fkqhHU-2" value="" style="whiteSpace=wrap;html=1;strokeColor=none;fillColor=none;" parent="WIyWlLk6GJQsqaUBKTNV-1" vertex="1">
          <mxGeometry x="540" y="460" width="120" height="60" as="geometry" />
        </mxCell>
        <mxCell id="KSTEse7L-qCAf8fkqhHU-13" value="&lt;span style=&quot;text-align: start; font-size: 10.5pt; line-height: 21px; font-family: 宋体;&quot;&gt;已运行风电场技术优化路线&lt;/span&gt;&lt;span style=&quot;font-size: medium; text-align: start;&quot;&gt;&lt;/span&gt;" style="rounded=0;whiteSpace=wrap;html=1;fontSize=13;fillColor=none;" parent="WIyWlLk6GJQsqaUBKTNV-1" vertex="1">
          <mxGeometry x="50" y="40" width="170" height="60" as="geometry" />
        </mxCell>
        <mxCell id="KSTEse7L-qCAf8fkqhHU-19" value="算法优化" style="swimlane;fontStyle=1;align=center;verticalAlign=top;childLayout=stackLayout;horizontal=1;startSize=26;horizontalStack=0;resizeParent=1;resizeLast=0;collapsible=1;marginBottom=0;rounded=0;shadow=0;strokeWidth=1;fillColor=#dae8fc;strokeColor=#6c8ebf;" parent="WIyWlLk6GJQsqaUBKTNV-1" vertex="1">
          <mxGeometry x="700" y="150" width="170" height="100" as="geometry">
            <mxRectangle x="508" y="120" width="160" height="26" as="alternateBounds" />
          </mxGeometry>
        </mxCell>
        <mxCell id="KSTEse7L-qCAf8fkqhHU-20" value="1、新算法引入&#xa;2、网格搜索&#xa;3、缺测处理" style="text;align=left;verticalAlign=middle;spacingLeft=4;spacingRight=4;overflow=hidden;rotatable=0;points=[[0,0.5],[1,0.5]];portConstraint=eastwest;horizontal=1;fontSize=13;" parent="KSTEse7L-qCAf8fkqhHU-19" vertex="1">
          <mxGeometry y="26" width="170" height="74" as="geometry" />
        </mxCell>
        <mxCell id="KSTEse7L-qCAf8fkqhHU-24" value="&lt;span style=&quot;font-size:10.5pt;mso-bidi-font-size:10.0pt;&#xa;line-height:150%;font-family:宋体;mso-bidi-font-family:宋体;mso-font-kerning:1.0pt;&#xa;mso-ansi-language:ZH-CN;mso-fareast-language:ZH-CN;mso-bidi-language:AR-SA&quot;&gt;风险点位信息筛选流程图&lt;/span&gt;" style="text;whiteSpace=wrap;html=1;" parent="WIyWlLk6GJQsqaUBKTNV-1" vertex="1">
          <mxGeometry x="8" y="284" width="190" height="40" as="geometry" />
        </mxCell>
        <mxCell id="KSTEse7L-qCAf8fkqhHU-27" value="" style="edgeStyle=orthogonalEdgeStyle;rounded=0;orthogonalLoop=1;jettySize=auto;html=1;" parent="WIyWlLk6GJQsqaUBKTNV-1" source="KSTEse7L-qCAf8fkqhHU-25" edge="1">
          <mxGeometry relative="1" as="geometry">
            <mxPoint x="265" y="440" as="targetPoint" />
          </mxGeometry>
        </mxCell>
        <mxCell id="KSTEse7L-qCAf8fkqhHU-25" value="风险点位排查" style="rounded=1;whiteSpace=wrap;html=1;fillColor=#0F6AF2;fontColor=#ffffff;strokeColor=#001DBC;" parent="WIyWlLk6GJQsqaUBKTNV-1" vertex="1">
          <mxGeometry x="220" y="370" width="90" height="40" as="geometry" />
        </mxCell>
        <mxCell id="KSTEse7L-qCAf8fkqhHU-47" value="" style="edgeStyle=orthogonalEdgeStyle;rounded=0;orthogonalLoop=1;jettySize=auto;html=1;fontFamily=Tahoma;fontSize=11;" parent="WIyWlLk6GJQsqaUBKTNV-1" source="KSTEse7L-qCAf8fkqhHU-32" target="KSTEse7L-qCAf8fkqhHU-41" edge="1">
          <mxGeometry relative="1" as="geometry" />
        </mxCell>
        <mxCell id="KSTEse7L-qCAf8fkqhHU-32" value="风险点位和scada编号对应" style="rounded=1;whiteSpace=wrap;html=1;fillColor=#0F6AF2;fontColor=#ffffff;strokeColor=#001DBC;" parent="WIyWlLk6GJQsqaUBKTNV-1" vertex="1">
          <mxGeometry x="220" y="440" width="90" height="40" as="geometry" />
        </mxCell>
        <mxCell id="KSTEse7L-qCAf8fkqhHU-39" value="&lt;font style=&quot;line-height: 0.8; font-size: 11px;&quot;&gt;经纬度市级检查+经纬度就近原则+项目名称近似一致原则&lt;/font&gt;" style="text;html=1;strokeColor=none;fillColor=none;align=center;verticalAlign=middle;whiteSpace=wrap;rounded=0;fontSize=3;spacing=-1;fontFamily=Verdana;" parent="WIyWlLk6GJQsqaUBKTNV-1" vertex="1">
          <mxGeometry x="340" y="410" width="100" height="50" as="geometry" />
        </mxCell>
        <mxCell id="KSTEse7L-qCAf8fkqhHU-45" value="" style="edgeStyle=orthogonalEdgeStyle;rounded=0;orthogonalLoop=1;jettySize=auto;html=1;fontFamily=Tahoma;fontSize=11;entryX=1;entryY=0.5;entryDx=0;entryDy=0;" parent="WIyWlLk6GJQsqaUBKTNV-1" source="KSTEse7L-qCAf8fkqhHU-40" target="KSTEse7L-qCAf8fkqhHU-32" edge="1">
          <mxGeometry relative="1" as="geometry">
            <mxPoint x="320" y="460" as="targetPoint" />
          </mxGeometry>
        </mxCell>
        <mxCell id="KSTEse7L-qCAf8fkqhHU-40" value="机组信息表(FCC系统导出+scada信息回传清单" style="rounded=1;whiteSpace=wrap;html=1;fillColor=#0F6AF2;fontColor=#ffffff;strokeColor=#001DBC;" parent="WIyWlLk6GJQsqaUBKTNV-1" vertex="1">
          <mxGeometry x="460" y="435" width="130" height="50" as="geometry" />
        </mxCell>
        <mxCell id="KSTEse7L-qCAf8fkqhHU-51" value="" style="edgeStyle=orthogonalEdgeStyle;rounded=0;orthogonalLoop=1;jettySize=auto;html=1;fontFamily=Tahoma;fontSize=11;" parent="WIyWlLk6GJQsqaUBKTNV-1" source="KSTEse7L-qCAf8fkqhHU-41" target="KSTEse7L-qCAf8fkqhHU-49" edge="1">
          <mxGeometry relative="1" as="geometry" />
        </mxCell>
        <mxCell id="KSTEse7L-qCAf8fkqhHU-41" value="代表点位筛选" style="rounded=1;whiteSpace=wrap;html=1;fillColor=#0F6AF2;fontColor=#ffffff;strokeColor=#001DBC;" parent="WIyWlLk6GJQsqaUBKTNV-1" vertex="1">
          <mxGeometry x="220" y="560" width="90" height="40" as="geometry" />
        </mxCell>
        <mxCell id="KSTEse7L-qCAf8fkqhHU-48" value="项目内EC0.1°重复性筛选" style="text;html=1;strokeColor=none;fillColor=none;align=center;verticalAlign=middle;whiteSpace=wrap;rounded=0;fontFamily=Tahoma;fontSize=11;" parent="WIyWlLk6GJQsqaUBKTNV-1" vertex="1">
          <mxGeometry x="260" y="500" width="60" height="30" as="geometry" />
        </mxCell>
        <mxCell id="KSTEse7L-qCAf8fkqhHU-49" value="最终风险点位&lt;br&gt;（197个项目，390个点位）" style="rounded=1;whiteSpace=wrap;html=1;fillColor=#0F6AF2;fontColor=#ffffff;strokeColor=#001DBC;" parent="WIyWlLk6GJQsqaUBKTNV-1" vertex="1">
          <mxGeometry x="220" y="630" width="90" height="50" as="geometry" />
        </mxCell>
        <mxCell id="En7vLa5YdN1gZkxb2_46-0" value="" style="shape=cross;whiteSpace=wrap;html=1;fillColor=#0050ef;strokeColor=#001DBC;fontColor=#ffffff;" parent="WIyWlLk6GJQsqaUBKTNV-1" vertex="1">
          <mxGeometry x="419" y="202" width="18" height="18" as="geometry" />
        </mxCell>
        <mxCell id="En7vLa5YdN1gZkxb2_46-3" value="" style="shape=cross;whiteSpace=wrap;html=1;fillColor=#0050ef;strokeColor=#001DBC;fontColor=#ffffff;" parent="WIyWlLk6GJQsqaUBKTNV-1" vertex="1">
          <mxGeometry x="661" y="200" width="18" height="18" as="geometry" />
        </mxCell>
        <mxCell id="5YajI4EcnErkIa19EKSG-146" value="" style="edgeStyle=orthogonalEdgeStyle;rounded=0;orthogonalLoop=1;jettySize=auto;html=1;endArrow=none;endFill=0;" edge="1" parent="WIyWlLk6GJQsqaUBKTNV-1" source="5YajI4EcnErkIa19EKSG-134" target="5YajI4EcnErkIa19EKSG-135">
          <mxGeometry relative="1" as="geometry" />
        </mxCell>
        <mxCell id="5YajI4EcnErkIa19EKSG-134" value="Entity" style="whiteSpace=wrap;html=1;align=center;" vertex="1" parent="WIyWlLk6GJQsqaUBKTNV-1">
          <mxGeometry x="184" y="948" width="100" height="40" as="geometry" />
        </mxCell>
        <mxCell id="5YajI4EcnErkIa19EKSG-147" value="" style="edgeStyle=orthogonalEdgeStyle;rounded=0;orthogonalLoop=1;jettySize=auto;html=1;endArrow=none;endFill=0;" edge="1" parent="WIyWlLk6GJQsqaUBKTNV-1" source="5YajI4EcnErkIa19EKSG-135" target="5YajI4EcnErkIa19EKSG-136">
          <mxGeometry relative="1" as="geometry" />
        </mxCell>
        <mxCell id="5YajI4EcnErkIa19EKSG-135" value="气象判据" style="shape=rhombus;perimeter=rhombusPerimeter;whiteSpace=wrap;html=1;align=center;" vertex="1" parent="WIyWlLk6GJQsqaUBKTNV-1">
          <mxGeometry x="320" y="938" width="120" height="60" as="geometry" />
        </mxCell>
        <mxCell id="5YajI4EcnErkIa19EKSG-148" value="" style="edgeStyle=orthogonalEdgeStyle;rounded=0;orthogonalLoop=1;jettySize=auto;html=1;endArrow=none;endFill=0;" edge="1" parent="WIyWlLk6GJQsqaUBKTNV-1" source="5YajI4EcnErkIa19EKSG-136" target="5YajI4EcnErkIa19EKSG-139">
          <mxGeometry relative="1" as="geometry" />
        </mxCell>
        <mxCell id="5YajI4EcnErkIa19EKSG-136" value="Relationship" style="shape=rhombus;perimeter=rhombusPerimeter;whiteSpace=wrap;html=1;align=center;" vertex="1" parent="WIyWlLk6GJQsqaUBKTNV-1">
          <mxGeometry x="472" y="938" width="120" height="60" as="geometry" />
        </mxCell>
        <mxCell id="5YajI4EcnErkIa19EKSG-159" value="" style="edgeStyle=orthogonalEdgeStyle;rounded=0;orthogonalLoop=1;jettySize=auto;html=1;startArrow=none;startFill=0;endArrow=none;endFill=0;" edge="1" parent="WIyWlLk6GJQsqaUBKTNV-1" source="5YajI4EcnErkIa19EKSG-137" target="5YajI4EcnErkIa19EKSG-140">
          <mxGeometry relative="1" as="geometry" />
        </mxCell>
        <mxCell id="5YajI4EcnErkIa19EKSG-137" value="Relationship" style="shape=rhombus;perimeter=rhombusPerimeter;whiteSpace=wrap;html=1;align=center;" vertex="1" parent="WIyWlLk6GJQsqaUBKTNV-1">
          <mxGeometry x="472" y="1029" width="120" height="60" as="geometry" />
        </mxCell>
        <mxCell id="5YajI4EcnErkIa19EKSG-160" value="" style="edgeStyle=orthogonalEdgeStyle;rounded=0;orthogonalLoop=1;jettySize=auto;html=1;startArrow=none;startFill=0;endArrow=none;endFill=0;" edge="1" parent="WIyWlLk6GJQsqaUBKTNV-1" source="5YajI4EcnErkIa19EKSG-138" target="5YajI4EcnErkIa19EKSG-141">
          <mxGeometry relative="1" as="geometry" />
        </mxCell>
        <mxCell id="5YajI4EcnErkIa19EKSG-186" value="" style="edgeStyle=orthogonalEdgeStyle;rounded=0;orthogonalLoop=1;jettySize=auto;html=1;startArrow=none;startFill=0;endArrow=none;endFill=0;" edge="1" parent="WIyWlLk6GJQsqaUBKTNV-1" source="5YajI4EcnErkIa19EKSG-138">
          <mxGeometry relative="1" as="geometry">
            <mxPoint x="532" y="1246" as="targetPoint" />
          </mxGeometry>
        </mxCell>
        <mxCell id="5YajI4EcnErkIa19EKSG-138" value="Relationship" style="shape=rhombus;perimeter=rhombusPerimeter;whiteSpace=wrap;html=1;align=center;" vertex="1" parent="WIyWlLk6GJQsqaUBKTNV-1">
          <mxGeometry x="472" y="1130" width="120" height="60" as="geometry" />
        </mxCell>
        <mxCell id="5YajI4EcnErkIa19EKSG-149" value="" style="edgeStyle=orthogonalEdgeStyle;rounded=0;orthogonalLoop=1;jettySize=auto;html=1;endArrow=none;endFill=0;" edge="1" parent="WIyWlLk6GJQsqaUBKTNV-1" source="5YajI4EcnErkIa19EKSG-139" target="5YajI4EcnErkIa19EKSG-140">
          <mxGeometry relative="1" as="geometry" />
        </mxCell>
        <mxCell id="5YajI4EcnErkIa19EKSG-196" value="" style="edgeStyle=orthogonalEdgeStyle;rounded=0;orthogonalLoop=1;jettySize=auto;html=1;startArrow=none;startFill=0;endArrow=none;endFill=0;" edge="1" parent="WIyWlLk6GJQsqaUBKTNV-1" source="5YajI4EcnErkIa19EKSG-139">
          <mxGeometry relative="1" as="geometry">
            <mxPoint x="759" y="1057" as="targetPoint" />
          </mxGeometry>
        </mxCell>
        <mxCell id="5YajI4EcnErkIa19EKSG-139" value="Entity" style="whiteSpace=wrap;html=1;align=center;" vertex="1" parent="WIyWlLk6GJQsqaUBKTNV-1">
          <mxGeometry x="636" y="948" width="100" height="40" as="geometry" />
        </mxCell>
        <mxCell id="5YajI4EcnErkIa19EKSG-150" style="edgeStyle=orthogonalEdgeStyle;rounded=0;orthogonalLoop=1;jettySize=auto;html=1;exitX=0.5;exitY=1;exitDx=0;exitDy=0;endArrow=none;endFill=0;" edge="1" parent="WIyWlLk6GJQsqaUBKTNV-1" source="5YajI4EcnErkIa19EKSG-140">
          <mxGeometry relative="1" as="geometry">
            <mxPoint x="686" y="1138" as="targetPoint" />
          </mxGeometry>
        </mxCell>
        <mxCell id="5YajI4EcnErkIa19EKSG-158" value="" style="edgeStyle=orthogonalEdgeStyle;rounded=0;orthogonalLoop=1;jettySize=auto;html=1;startArrow=none;startFill=0;endArrow=none;endFill=0;" edge="1" parent="WIyWlLk6GJQsqaUBKTNV-1" source="5YajI4EcnErkIa19EKSG-140" target="5YajI4EcnErkIa19EKSG-155">
          <mxGeometry relative="1" as="geometry" />
        </mxCell>
        <mxCell id="5YajI4EcnErkIa19EKSG-140" value="Entity" style="whiteSpace=wrap;html=1;align=center;" vertex="1" parent="WIyWlLk6GJQsqaUBKTNV-1">
          <mxGeometry x="636" y="1039" width="100" height="40" as="geometry" />
        </mxCell>
        <mxCell id="5YajI4EcnErkIa19EKSG-199" value="" style="edgeStyle=orthogonalEdgeStyle;rounded=0;orthogonalLoop=1;jettySize=auto;html=1;startArrow=none;startFill=0;endArrow=none;endFill=0;" edge="1" parent="WIyWlLk6GJQsqaUBKTNV-1" source="5YajI4EcnErkIa19EKSG-141">
          <mxGeometry relative="1" as="geometry">
            <mxPoint x="759" y="1059" as="targetPoint" />
          </mxGeometry>
        </mxCell>
        <mxCell id="5YajI4EcnErkIa19EKSG-141" value="Entity" style="whiteSpace=wrap;html=1;align=center;" vertex="1" parent="WIyWlLk6GJQsqaUBKTNV-1">
          <mxGeometry x="636" y="1140" width="100" height="40" as="geometry" />
        </mxCell>
        <mxCell id="5YajI4EcnErkIa19EKSG-155" value="Entity" style="whiteSpace=wrap;html=1;align=center;" vertex="1" parent="WIyWlLk6GJQsqaUBKTNV-1">
          <mxGeometry x="784" y="1039" width="100" height="40" as="geometry" />
        </mxCell>
        <mxCell id="5YajI4EcnErkIa19EKSG-182" value="" style="edgeStyle=orthogonalEdgeStyle;rounded=0;orthogonalLoop=1;jettySize=auto;html=1;startArrow=none;startFill=0;endArrow=none;endFill=0;entryX=0.5;entryY=1;entryDx=0;entryDy=0;" edge="1" parent="WIyWlLk6GJQsqaUBKTNV-1" source="5YajI4EcnErkIa19EKSG-165" target="5YajI4EcnErkIa19EKSG-135">
          <mxGeometry relative="1" as="geometry">
            <mxPoint x="506" y="1246" as="targetPoint" />
          </mxGeometry>
        </mxCell>
        <mxCell id="5YajI4EcnErkIa19EKSG-184" value="" style="edgeStyle=orthogonalEdgeStyle;rounded=0;orthogonalLoop=1;jettySize=auto;html=1;startArrow=none;startFill=0;endArrow=none;endFill=0;" edge="1" parent="WIyWlLk6GJQsqaUBKTNV-1" source="5YajI4EcnErkIa19EKSG-165">
          <mxGeometry relative="1" as="geometry">
            <mxPoint x="546" y="1246" as="targetPoint" />
          </mxGeometry>
        </mxCell>
        <mxCell id="5YajI4EcnErkIa19EKSG-201" value="" style="edgeStyle=orthogonalEdgeStyle;rounded=0;orthogonalLoop=1;jettySize=auto;html=1;startArrow=none;startFill=0;endArrow=none;endFill=0;" edge="1" parent="WIyWlLk6GJQsqaUBKTNV-1" source="5YajI4EcnErkIa19EKSG-165">
          <mxGeometry relative="1" as="geometry">
            <mxPoint x="759" y="1055" as="targetPoint" />
          </mxGeometry>
        </mxCell>
        <mxCell id="5YajI4EcnErkIa19EKSG-165" value="Entity" style="whiteSpace=wrap;html=1;align=center;" vertex="1" parent="WIyWlLk6GJQsqaUBKTNV-1">
          <mxGeometry x="636" y="1226" width="100" height="40" as="geometry" />
        </mxCell>
        <mxCell id="5YajI4EcnErkIa19EKSG-203" value="是" style="text;html=1;strokeColor=none;fillColor=none;align=center;verticalAlign=middle;whiteSpace=wrap;rounded=0;" vertex="1" parent="WIyWlLk6GJQsqaUBKTNV-1">
          <mxGeometry x="277" y="938" width="60" height="28" as="geometry" />
        </mxCell>
      </root>
    </mxGraphModel>
  </diagram>
</mxfile>
